<svg width="16" height="13" viewBox="0 0 16 13" fill="none" xmlns="http://www.w3.org/2000/svg">
<path d="M9.72303 9.6472H8.45914V5.51438C8.45914 5.43933 8.39774 5.37793 8.32269 5.37793H7.29929C7.22424 5.37793 7.16284 5.43933 7.16284 5.51438V9.6472H5.90235C5.78807 9.6472 5.72497 9.77853 5.7949 9.86723L7.70524 12.2841C7.718 12.3005 7.73431 12.3136 7.75293 12.3227C7.77154 12.3318 7.79198 12.3365 7.81269 12.3365C7.8334 12.3365 7.85384 12.3318 7.87246 12.3227C7.89108 12.3136 7.90739 12.3005 7.92015 12.2841L9.83049 9.86723C9.90042 9.77853 9.83731 9.6472 9.72303 9.6472Z" fill="white"/>
<path d="M12.9195 4.35421C12.1383 2.29378 10.1478 0.828613 7.81616 0.828613C5.48452 0.828613 3.49401 2.29207 2.71282 4.35251C1.25107 4.73628 0.171387 6.0684 0.171387 7.65125C0.171387 9.53601 1.69795 11.0626 3.581 11.0626H4.26497C4.34002 11.0626 4.40142 11.0012 4.40142 10.9261V9.90273C4.40142 9.82768 4.34002 9.76627 4.26497 9.76627H3.581C3.00619 9.76627 2.4655 9.53771 2.06296 9.12324C1.66213 8.71047 1.44893 8.15442 1.46769 7.57791C1.48304 7.12762 1.63655 6.70461 1.91457 6.34813C2.19942 5.98482 2.59854 5.72045 3.04201 5.60276L3.68846 5.4339L3.92555 4.80962C4.07223 4.42073 4.27691 4.05743 4.53447 3.72824C4.78873 3.40196 5.08992 3.11514 5.42823 2.87711C6.12926 2.38418 6.9548 2.12321 7.81616 2.12321C8.67751 2.12321 9.50305 2.38418 10.2041 2.87711C10.5435 3.1159 10.8437 3.40245 11.0978 3.72824C11.3554 4.05743 11.5601 4.42244 11.7068 4.80962L11.9421 5.43219L12.5869 5.60276C13.5114 5.85178 14.1578 6.69267 14.1578 7.65125C14.1578 8.21583 13.9378 8.74799 13.5386 9.14712C13.3429 9.344 13.1101 9.5001 12.8536 9.60637C12.5971 9.71265 12.3221 9.767 12.0445 9.76627H11.3605C11.2855 9.76627 11.2241 9.82768 11.2241 9.90273V10.9261C11.2241 11.0012 11.2855 11.0626 11.3605 11.0626H12.0445C13.9275 11.0626 15.4541 9.53601 15.4541 7.65125C15.4541 6.07011 14.3778 4.73969 12.9195 4.35421Z" fill="white"/>
</svg>
