<svg width="130" height="98" viewBox="0 0 130 98" fill="none" xmlns="http://www.w3.org/2000/svg">
<g clip-path="url(#clip0_917_5874)">
<g style="mix-blend-mode:multiply">
<mask id="mask0_917_5874" style="mask-type:luminance" maskUnits="userSpaceOnUse" x="44" y="53" width="42" height="4">
<path d="M85.5098 53.4048H44.0221V56.3555H85.5098V53.4048Z" fill="white"/>
</mask>
<g mask="url(#mask0_917_5874)">
<path d="M85.5098 54.8837C85.5098 54.066 76.2215 53.4048 64.7659 53.4048C53.3104 53.4048 44.0221 54.066 44.0221 54.8837C44.0221 55.7014 53.3104 56.3626 64.7659 56.3626C76.2215 56.3626 85.5098 55.7014 85.5098 54.8837Z" fill="#C6C6C6"/>
</g>
</g>
<path d="M77.5679 8.00586V28.4619C77.5679 35.4442 71.8365 41.1039 64.7659 41.1039C57.6953 41.1039 51.9639 35.4442 51.9639 28.4619V8.00586H44.0221V28.4904C44.0221 39.8027 53.3104 48.9749 64.7659 48.9749C76.2215 48.9749 85.5098 39.8027 85.5098 28.4904V8.00586H77.5679Z" fill="#8550CF"/>
<path d="M68.7405 0H60.7915V16.0051H68.7405V0Z" fill="#F4AA35"/>
<path d="M0 90.8045V67.9097H12.0532C13.378 67.9097 14.5948 68.2225 15.6965 68.8411C16.7981 69.4597 17.6837 70.3058 18.3462 71.3723C19.0086 72.4389 19.3398 73.6263 19.3398 74.9346C19.3398 76.2428 18.987 77.5156 18.2814 78.6105C17.5757 79.7055 16.6397 80.5872 15.4805 81.2413C14.3212 81.8954 13.0324 82.2225 11.6212 82.2225H3.57851V90.7903H0V90.8045ZM3.57851 78.8309H11.3979C12.1468 78.8309 12.8452 78.6532 13.486 78.2906C14.1268 77.9279 14.6308 77.4587 15.0125 76.8685C15.3941 76.2784 15.5741 75.6385 15.5741 74.9417C15.5741 74.2449 15.3869 73.6547 15.0125 73.1072C14.638 72.5597 14.1268 72.126 13.486 71.799C12.8452 71.4719 12.1468 71.3083 11.3979 71.3083H3.57851V78.8309Z" fill="#8550CF"/>
<path d="M29.2473 91.1313C27.3897 91.1313 25.7552 90.7474 24.3296 89.9724C22.904 89.1974 21.7951 88.138 21.0031 86.7799C20.2111 85.429 19.8079 83.9003 19.8079 82.2009C19.8079 80.5016 20.2255 78.916 21.0679 77.5722C21.9103 76.2284 23.0552 75.176 24.5096 74.4153C25.9641 73.6545 27.6201 73.2705 29.4778 73.2705C30.6226 73.2705 31.6882 73.4127 32.6747 73.6971C33.6611 73.9815 34.5035 74.3655 35.2235 74.8419C35.9436 75.3182 36.5124 75.8444 36.93 76.4132C37.3476 76.982 37.578 77.558 37.6284 78.1481L36.6996 78.0841V73.6331H40.1413V90.8043H36.6996V86.2893L37.4268 86.3888C37.3836 86.915 37.1316 87.4554 36.6636 88.01C36.2028 88.5646 35.5907 89.0765 34.8419 89.5458C34.0931 90.015 33.2363 90.399 32.2714 90.6905C31.3066 90.982 30.2986 91.1313 29.2402 91.1313H29.2473ZM30.0754 88.0242C31.4002 88.0242 32.5667 87.7682 33.5891 87.2563C34.6043 86.7444 35.3963 86.0475 35.9724 85.1659C36.5484 84.2842 36.8364 83.2959 36.8364 82.208C36.8364 81.1202 36.5484 80.1034 35.9724 79.2289C35.3963 78.3543 34.6043 77.6717 33.5891 77.1669C32.5739 76.6621 31.4002 76.4132 30.0754 76.4132C28.7505 76.4132 27.5769 76.6621 26.5617 77.1669C25.5464 77.6717 24.7472 78.3543 24.164 79.2289C23.5808 80.1034 23.2856 81.0917 23.2856 82.208C23.2856 83.3243 23.5808 84.2842 24.164 85.1659C24.7472 86.0475 25.5464 86.7444 26.5617 87.2563C27.5769 87.7682 28.7505 88.0242 30.0754 88.0242Z" fill="#8550CF"/>
<path d="M45.2102 98V73.5978H48.6519V77.5582L48.1191 77.2666C48.2703 76.6552 48.7167 76.0508 49.4583 75.4535C50.2 74.8563 51.1216 74.3514 52.2232 73.9462C53.3249 73.5409 54.5057 73.3418 55.7657 73.3418C57.6666 73.3418 59.3298 73.7186 60.7699 74.4723C62.2027 75.226 63.326 76.2641 64.1324 77.5937C64.9388 78.9233 65.342 80.4591 65.342 82.2082C65.342 83.9573 64.9388 85.4647 64.1324 86.8014C63.326 88.1453 62.2027 89.1976 60.7699 89.9583C59.337 90.7191 57.7026 91.1031 55.8665 91.1031C54.4985 91.1031 53.2313 90.8827 52.072 90.449C50.9128 90.0152 49.948 89.482 49.1775 88.8492C48.4071 88.2164 47.9391 87.5978 47.7879 86.9863L48.6519 86.5312V98.0142H45.2102V98ZM55.3121 87.9888C56.637 87.9888 57.8034 87.7329 58.8042 87.2209C59.8051 86.709 60.6043 86.0193 61.1875 85.1447C61.7707 84.2702 62.0659 83.289 62.0659 82.2011C62.0659 81.1133 61.7779 80.132 61.2019 79.2575C60.6259 78.3829 59.8339 77.7004 58.8186 77.1955C57.8034 76.6907 56.6298 76.4418 55.3049 76.4418C53.9801 76.4418 52.8064 76.6907 51.7768 77.1955C50.7472 77.7004 49.9408 78.3829 49.3575 79.2575C48.7743 80.132 48.4791 81.1133 48.4791 82.2011C48.4791 83.289 48.7743 84.2702 49.3575 85.1447C49.9408 86.0193 50.7472 86.709 51.7768 87.2209C52.8064 87.7329 53.9801 87.9888 55.3049 87.9888H55.3121Z" fill="#8550CF"/>
<path d="M70.3822 69.6445C69.655 69.6445 69.0934 69.4596 68.6901 69.0899C68.2869 68.7202 68.0925 68.194 68.0925 67.5185C68.0925 66.8857 68.2941 66.3738 68.7045 65.9827C69.115 65.5917 69.6694 65.3926 70.375 65.3926C71.0806 65.3926 71.6638 65.5774 72.067 65.9472C72.4631 66.3169 72.6647 66.8431 72.6647 67.5185C72.6647 68.1513 72.4631 68.6633 72.0527 69.0543C71.6422 69.4454 71.0878 69.6445 70.3822 69.6445ZM68.7261 90.8045V73.6333H72.1391V90.8045H68.7261Z" fill="#8550CF"/>
<path d="M77.6976 90.8045V73.6333H81.1393V79.5846L80.3761 78.966C80.6857 77.9208 81.2113 76.968 81.9458 76.1077C82.6874 75.2474 83.537 74.5577 84.4946 74.0457C85.4523 73.5338 86.4531 73.2778 87.4899 73.2778C88.1524 73.2778 88.786 73.3418 89.398 73.4769C90.0028 73.6049 90.4924 73.7898 90.874 74.0315L89.9812 77.5653C89.5636 77.3449 89.0668 77.1742 88.4908 77.0391C87.9147 76.9111 87.3747 76.84 86.8707 76.84C86.0283 76.84 85.2579 76.9823 84.5522 77.2667C83.8466 77.5511 83.2346 77.935 82.7306 78.4256C82.2194 78.9162 81.8306 79.4637 81.5569 80.0752C81.2833 80.6867 81.1393 81.3053 81.1393 81.9381V90.8045H77.6976Z" fill="#8550CF"/>
<path d="M122.217 91.1313C120.409 91.1313 118.746 90.8825 117.234 90.3777C115.722 89.8728 114.455 89.0694 113.439 87.9602L115.758 85.8698C116.572 86.6732 117.515 87.2847 118.573 87.7042C119.632 88.1166 120.805 88.3228 122.087 88.3228C122.598 88.3228 123.117 88.2873 123.642 88.2233C124.175 88.1593 124.665 88.0384 125.118 87.8607C125.572 87.6829 125.932 87.4625 126.213 87.1923C126.493 86.9221 126.63 86.5737 126.63 86.1613C126.63 85.4858 126.155 84.981 125.205 84.6539C124.722 84.4762 124.153 84.3127 123.513 84.1491C122.872 83.9856 122.152 83.8363 121.36 83.7083C120.035 83.4452 118.861 83.1537 117.846 82.8266C116.831 82.4996 115.988 82.0729 115.326 81.5539C114.865 81.1628 114.505 80.6936 114.253 80.1461C114.001 79.5986 113.871 78.9658 113.871 78.2477C113.871 77.4869 114.073 76.8043 114.469 76.1999C114.865 75.6027 115.427 75.0765 116.14 74.6286C116.86 74.1806 117.695 73.8464 118.66 73.6118C119.624 73.3772 120.654 73.2705 121.756 73.2705C122.706 73.2705 123.685 73.37 124.701 73.562C125.716 73.7611 126.681 74.0597 127.595 74.465C128.51 74.8703 129.28 75.3894 129.899 76.015L128.042 78.269C127.487 77.8353 126.853 77.4442 126.141 77.11C125.421 76.7687 124.686 76.5128 123.937 76.3279C123.189 76.143 122.483 76.0506 121.821 76.0506C121.288 76.0506 120.762 76.0861 120.229 76.1501C119.696 76.2141 119.207 76.3279 118.753 76.4914C118.3 76.655 117.94 76.8683 117.673 77.1314C117.407 77.3944 117.277 77.7215 117.277 78.1126C117.277 78.3756 117.349 78.6174 117.493 78.8449C117.637 79.0724 117.839 79.2786 118.105 79.4493C118.544 79.7124 119.142 79.947 119.891 80.1532C120.64 80.3594 121.489 80.5514 122.44 80.722C123.606 80.9424 124.693 81.1984 125.701 81.4899C126.709 81.7814 127.559 82.1583 128.272 82.6204C128.826 82.9902 129.251 83.4239 129.546 83.9287C129.842 84.4335 129.993 85.0166 129.993 85.692C129.993 86.8226 129.64 87.8038 128.934 88.6214C128.229 89.4391 127.293 90.0577 126.133 90.4843C124.974 90.9109 123.664 91.1242 122.209 91.1242L122.217 91.1313Z" fill="#8550CF"/>
<path d="M107.406 73.5977V82.3219C107.406 85.3011 104.965 87.7114 101.948 87.7114C98.9311 87.7114 96.4902 85.3011 96.4902 82.3219V73.5977H93.1061V82.329C93.1061 87.1568 97.0662 91.0674 101.955 91.0674C106.844 91.0674 110.797 87.1568 110.797 82.329V73.5977H107.413H107.406Z" fill="#8550CF"/>
</g>
<defs>
<clipPath id="clip0_917_5874">
<rect width="130" height="98" fill="white"/>
</clipPath>
</defs>
</svg>
