<svg width="36" height="44" viewBox="0 0 36 44" fill="none" xmlns="http://www.w3.org/2000/svg">
<path d="M19.8 15.4H31.9L19.8 3.3V15.4ZM4.4 0H22L35.2 13.2V39.6C35.2 40.767 34.7364 41.8861 33.9113 42.7113C33.0861 43.5364 31.967 44 30.8 44H4.4C1.958 44 0 42.02 0 39.6V4.4C0 1.958 1.958 0 4.4 0ZM22 39.6V37.4C22 34.474 16.126 33 13.2 33C10.274 33 4.4 34.474 4.4 37.4V39.6H22ZM13.2 22C12.033 22 10.9139 22.4636 10.0887 23.2887C9.26357 24.1139 8.8 25.233 8.8 26.4C8.8 27.567 9.26357 28.6861 10.0887 29.5113C10.9139 30.3364 12.033 30.8 13.2 30.8C14.367 30.8 15.4861 30.3364 16.3113 29.5113C17.1364 28.6861 17.6 27.567 17.6 26.4C17.6 25.233 17.1364 24.1139 16.3113 23.2887C15.4861 22.4636 14.367 22 13.2 22Z" fill="white"/>
</svg>
