<svg width="130" height="33" viewBox="0 0 130 33" fill="none" xmlns="http://www.w3.org/2000/svg">
<path d="M0 25.412V2.51709H12.0532C13.378 2.51709 14.5948 2.82994 15.6965 3.44853C16.7981 4.06711 17.6837 4.91323 18.3462 5.97976C19.0086 7.04629 19.3398 8.2337 19.3398 9.54197C19.3398 10.8503 18.987 12.123 18.2814 13.2179C17.5757 14.3129 16.6397 15.1946 15.4805 15.8487C14.3212 16.5029 13.0324 16.8299 11.6212 16.8299H3.57851V25.3977H0V25.412ZM3.57851 13.4384H11.3979C12.1468 13.4384 12.8452 13.2606 13.486 12.898C14.1268 12.5354 14.6308 12.0661 15.0125 11.476C15.3941 10.8858 15.5741 10.2459 15.5741 9.54909C15.5741 8.85228 15.3869 8.26214 15.0125 7.71465C14.638 7.16716 14.1268 6.73344 13.486 6.40637C12.8452 6.0793 12.1468 5.91577 11.3979 5.91577H3.57851V13.4384Z" fill="white"/>
<path d="M29.2473 25.7388C27.3897 25.7388 25.7552 25.3548 24.3296 24.5798C22.904 23.8048 21.7951 22.7454 21.0031 21.3873C20.2111 20.0364 19.8079 18.5077 19.8079 16.8083C19.8079 15.109 20.2255 13.5234 21.0679 12.1796C21.9103 10.8358 23.0552 9.78347 24.5096 9.02267C25.9641 8.26188 27.6201 7.87793 29.4778 7.87793C30.6226 7.87793 31.6882 8.02013 32.6747 8.30454C33.6611 8.58895 34.5035 8.9729 35.2235 9.44929C35.9436 9.92567 36.5124 10.4518 36.93 11.0206C37.3476 11.5895 37.578 12.1654 37.6284 12.7555L36.6996 12.6915V8.24055H40.1413V25.4117H36.6996V20.8967L37.4268 20.9963C37.3836 21.5224 37.1316 22.0628 36.6636 22.6174C36.2028 23.172 35.5907 23.6839 34.8419 24.1532C34.0931 24.6225 33.2363 25.0064 32.2714 25.2979C31.3066 25.5895 30.2986 25.7388 29.2402 25.7388H29.2473ZM30.0754 22.6316C31.4002 22.6316 32.5667 22.3756 33.5891 21.8637C34.6043 21.3518 35.3963 20.655 35.9724 19.7733C36.5484 18.8916 36.8364 17.9033 36.8364 16.8155C36.8364 15.7276 36.5484 14.7108 35.9724 13.8363C35.3963 12.9617 34.6043 12.2791 33.5891 11.7743C32.5739 11.2695 31.4002 11.0206 30.0754 11.0206C28.7505 11.0206 27.5769 11.2695 26.5617 11.7743C25.5464 12.2791 24.7472 12.9617 24.164 13.8363C23.5808 14.7108 23.2856 15.6992 23.2856 16.8155C23.2856 17.9318 23.5808 18.8916 24.164 19.7733C24.7472 20.655 25.5464 21.3518 26.5617 21.8637C27.5769 22.3756 28.7505 22.6316 30.0754 22.6316Z" fill="white"/>
<path d="M45.2102 32.6074V8.20519H48.6519V12.1656L48.1191 11.8741C48.2703 11.2626 48.7167 10.6582 49.4583 10.061C50.2 9.46369 51.1216 8.95887 52.2232 8.55359C53.3249 8.1483 54.5057 7.94922 55.7657 7.94922C57.6666 7.94922 59.3298 8.32606 60.7699 9.07974C62.2027 9.83342 63.326 10.8715 64.1324 12.2011C64.9388 13.5307 65.342 15.0665 65.342 16.8156C65.342 18.5648 64.9388 20.0721 64.1324 21.4088C63.326 22.7527 62.2027 23.805 60.7699 24.5658C59.337 25.3266 57.7026 25.7105 55.8665 25.7105C54.4985 25.7105 53.2313 25.4901 52.072 25.0564C50.9128 24.6227 49.948 24.0894 49.1775 23.4566C48.4071 22.8238 47.9391 22.2052 47.7879 21.5937L48.6519 21.1387V32.6216H45.2102V32.6074ZM55.3121 22.5962C56.637 22.5962 57.8034 22.3403 58.8042 21.8283C59.8051 21.3164 60.6043 20.6267 61.1875 19.7522C61.7707 18.8776 62.0659 17.8964 62.0659 16.8085C62.0659 15.7207 61.7779 14.7395 61.2019 13.8649C60.6259 12.9904 59.8339 12.3078 58.8186 11.803C57.8034 11.2981 56.6298 11.0493 55.3049 11.0493C53.9801 11.0493 52.8064 11.2981 51.7768 11.803C50.7472 12.3078 49.9408 12.9904 49.3575 13.8649C48.7743 14.7395 48.4791 15.7207 48.4791 16.8085C48.4791 17.8964 48.7743 18.8776 49.3575 19.7522C49.9408 20.6267 50.7472 21.3164 51.7768 21.8283C52.8064 22.3403 53.9801 22.5962 55.3049 22.5962H55.3121Z" fill="white"/>
<path d="M70.3822 4.2519C69.655 4.2519 69.0934 4.06704 68.6901 3.69731C68.2869 3.32758 68.0925 2.80142 68.0925 2.12595C68.0925 1.49314 68.2941 0.98121 68.7045 0.590149C69.115 0.199087 69.6694 0 70.375 0C71.0806 0 71.6638 0.184865 72.067 0.554595C72.4631 0.924326 72.6647 1.45048 72.6647 2.12595C72.6647 2.75876 72.4631 3.2707 72.0527 3.66176C71.6422 4.05282 71.0878 4.2519 70.3822 4.2519ZM68.7261 25.4119V8.24073H72.1391V25.4119H68.7261Z" fill="white"/>
<path d="M77.6975 25.4119V8.24076H81.1392V14.192L80.376 13.5734C80.6856 12.5282 81.2112 11.5755 81.9456 10.7151C82.6873 9.85478 83.5369 9.16509 84.4945 8.65316C85.4521 8.14122 86.453 7.88525 87.4898 7.88525C88.1522 7.88525 88.7858 7.94924 89.3979 8.08434C90.0027 8.21232 90.4923 8.39719 90.8739 8.63894L89.9811 12.1727C89.5635 11.9523 89.0667 11.7816 88.4906 11.6466C87.9146 11.5186 87.3746 11.4475 86.8706 11.4475C86.0282 11.4475 85.2577 11.5897 84.5521 11.8741C83.8465 12.1585 83.2345 12.5424 82.7305 13.033C82.2192 13.5237 81.8304 14.0711 81.5568 14.6826C81.2832 15.2941 81.1392 15.9127 81.1392 16.5455V25.4119H77.6975Z" fill="white"/>
<path d="M122.217 25.7388C120.409 25.7388 118.746 25.4899 117.234 24.9851C115.722 24.4803 114.455 23.6768 113.439 22.5676L115.758 20.4772C116.572 21.2807 117.515 21.8921 118.573 22.3116C119.632 22.724 120.805 22.9302 122.087 22.9302C122.598 22.9302 123.117 22.8947 123.642 22.8307C124.175 22.7667 124.665 22.6458 125.118 22.4681C125.572 22.2903 125.932 22.0699 126.213 21.7997C126.493 21.5295 126.63 21.1811 126.63 20.7687C126.63 20.0933 126.155 19.5884 125.205 19.2614C124.722 19.0836 124.153 18.9201 123.513 18.7565C122.872 18.593 122.152 18.4437 121.36 18.3157C120.035 18.0526 118.861 17.7611 117.846 17.434C116.831 17.107 115.988 16.6804 115.326 16.1613C114.865 15.7703 114.505 15.301 114.253 14.7535C114.001 14.206 113.871 13.5732 113.871 12.8551C113.871 12.0943 114.073 11.4117 114.469 10.8073C114.865 10.2101 115.427 9.68392 116.14 9.23598C116.86 8.78803 117.695 8.45385 118.66 8.21922C119.624 7.98458 120.654 7.87793 121.756 7.87793C122.706 7.87793 123.685 7.97747 124.701 8.16945C125.716 8.36853 126.681 8.66716 127.595 9.07244C128.51 9.47773 129.28 9.99677 129.899 10.6225L128.042 12.8764C127.487 12.4427 126.853 12.0516 126.141 11.7174C125.421 11.3761 124.686 11.1202 123.937 10.9353C123.189 10.7505 122.483 10.658 121.821 10.658C121.288 10.658 120.762 10.6936 120.229 10.7576C119.696 10.8216 119.207 10.9353 118.753 11.0989C118.3 11.2624 117.94 11.4757 117.673 11.7388C117.407 12.0019 117.277 12.3289 117.277 12.72C117.277 12.9831 117.349 13.2248 117.493 13.4523C117.637 13.6799 117.839 13.8861 118.105 14.0567C118.544 14.3198 119.142 14.5544 119.891 14.7606C120.64 14.9668 121.489 15.1588 122.44 15.3294C123.606 15.5498 124.693 15.8058 125.701 16.0973C126.709 16.3888 127.559 16.7657 128.272 17.2278C128.826 17.5976 129.251 18.0313 129.546 18.5361C129.842 19.041 129.993 19.624 129.993 20.2995C129.993 21.43 129.64 22.4112 128.934 23.2289C128.229 24.0465 127.293 24.6651 126.133 25.0917C124.974 25.5184 123.664 25.7317 122.209 25.7317L122.217 25.7388Z" fill="white"/>
<g style="mix-blend-mode:multiply">
<mask id="mask0_888_1378" style="mask-type:luminance" maskUnits="userSpaceOnUse" x="93" y="26" width="18" height="3">
<path d="M111 26.7778H93V28.0581H111V26.7778Z" fill="white"/>
</mask>
<g mask="url(#mask0_888_1378)">
<path d="M111 27.4195C111 27.0647 106.97 26.7778 102 26.7778C97.0299 26.7778 93 27.0647 93 27.4195C93 27.7742 97.0299 28.0611 102 28.0611C106.97 28.0611 111 27.7742 111 27.4195Z" fill="#C6C6C6"/>
</g>
</g>
<path d="M107.554 7.60742V16.0956C107.554 18.9929 105.068 21.3414 102 21.3414C98.9323 21.3414 96.4457 18.9929 96.4457 16.0956V7.60742H93V16.1074C93 20.8015 97.0299 24.6074 102 24.6074C106.97 24.6074 111 20.8015 111 16.1074V7.60742H107.554Z" fill="white"/>
<path d="M104 3.60742H100V10.6074H104V3.60742Z" fill="#F4AA35"/>
</svg>
