<svg width="15" height="11" viewBox="0 0 15 11" fill="none" xmlns="http://www.w3.org/2000/svg">
<path d="M10.6841 6.27688C11.6182 6.91625 12.2727 7.7825 12.2727 8.9375V11H15V8.9375C15 7.43875 12.5659 6.55188 10.6841 6.27688ZM9.54545 5.5C11.0523 5.5 12.2727 4.26937 12.2727 2.75C12.2727 1.23062 11.0523 0 9.54545 0C9.225 0 8.925 0.0687498 8.63864 0.165C9.20455 0.873125 9.54545 1.77375 9.54545 2.75C9.54545 3.72625 9.20455 4.62688 8.63864 5.335C8.925 5.43125 9.225 5.5 9.54545 5.5ZM5.45455 5.5C6.96136 5.5 8.18182 4.26937 8.18182 2.75C8.18182 1.23062 6.96136 0 5.45455 0C3.94773 0 2.72727 1.23062 2.72727 2.75C2.72727 4.26937 3.94773 5.5 5.45455 5.5ZM5.45455 1.375C6.20455 1.375 6.81818 1.99375 6.81818 2.75C6.81818 3.50625 6.20455 4.125 5.45455 4.125C4.70455 4.125 4.09091 3.50625 4.09091 2.75C4.09091 1.99375 4.70455 1.375 5.45455 1.375ZM5.45455 6.1875C3.63409 6.1875 0 7.10875 0 8.9375V11H10.9091V8.9375C10.9091 7.10875 7.275 6.1875 5.45455 6.1875ZM9.54545 9.625H1.36364V8.94438C1.5 8.44938 3.61364 7.5625 5.45455 7.5625C7.29545 7.5625 9.40909 8.44938 9.54545 8.9375V9.625Z" fill="white"/>
</svg>
