<svg width="74" height="76" viewBox="0 0 74 76" fill="none" xmlns="http://www.w3.org/2000/svg">
<path d="M71.5858 40.0059C73.1398 37.9585 74 35.4501 74 32.8402C74 28.6995 71.6783 24.78 67.9413 22.5944C66.9792 22.0318 65.8838 21.7357 64.7685 21.7367H42.587L43.142 10.4027C43.2715 7.66369 42.3003 5.06304 40.4133 3.08027C39.4872 2.10298 38.37 1.32541 37.1306 0.795621C35.8912 0.265828 34.556 -0.00493399 33.2075 6.80611e-05C28.3975 6.80611e-05 24.1425 3.22783 22.866 7.84814L14.9202 36.5291H2.96C1.32275 36.5291 0 37.8479 0 39.4802V73.0489C0 74.6812 1.32275 76 2.96 76H58.5802C59.4312 76 60.2637 75.834 61.0315 75.502C65.4345 73.6299 68.2742 69.3416 68.2742 64.5829C68.2742 63.421 68.1077 62.2774 67.7747 61.1707C69.3287 59.1234 70.189 56.615 70.189 54.0051C70.189 52.8431 70.0225 51.6996 69.6895 50.5929C71.2435 48.5456 72.1038 46.0372 72.1038 43.4273C72.0853 42.2653 71.9188 41.1125 71.5858 40.0059ZM6.66 69.36V43.1691H14.1525V69.36H6.66ZM65.527 36.8058L63.5013 38.558L64.787 40.9004C65.2106 41.672 65.4302 42.5384 65.4252 43.4181C65.4252 44.9397 64.7593 46.3876 63.6123 47.3836L61.5865 49.1358L62.8723 51.4782C63.2958 52.2499 63.5155 53.1163 63.5105 53.9959C63.5105 55.5176 62.8445 56.9654 61.6975 57.9614L59.6717 59.7136L60.9575 62.0561C61.3811 62.8277 61.6007 63.6941 61.5958 64.5737C61.5958 66.6395 60.3748 68.5024 58.4878 69.3508H20.0725V42.874L29.2763 9.62802C29.5136 8.77589 30.023 8.02411 30.7274 7.4866C31.4318 6.94908 32.2927 6.65512 33.1798 6.64926C33.8828 6.64926 34.5765 6.85214 35.1315 7.26714C36.0473 7.94958 36.5375 8.98246 36.482 10.0799L35.594 28.3767H64.676C66.3225 29.3819 67.34 31.0788 67.34 32.8402C67.34 34.3619 66.674 35.8005 65.527 36.8058Z" fill="#8550CF"/>
</svg>
