<svg width="15" height="11" viewBox="0 0 15 11" fill="none" xmlns="http://www.w3.org/2000/svg">
<path d="M13.9581 4.82C12.436 1.61363 10.1351 0 7.05078 0C3.96482 0 1.6656 1.61363 0.143497 4.82161C0.0824447 4.95089 0.0507813 5.09208 0.0507812 5.23505C0.0507812 5.37802 0.0824447 5.51921 0.143497 5.64849C1.6656 8.85487 3.96642 10.4685 7.05078 10.4685C10.1367 10.4685 12.436 8.85487 13.9581 5.64689C14.0817 5.38678 14.0817 5.08493 13.9581 4.82ZM7.05078 9.31247C4.46095 9.31247 2.56474 7.99909 1.22728 5.23425C2.56474 2.46941 4.46095 1.15603 7.05078 1.15603C9.64061 1.15603 11.5368 2.46941 12.8743 5.23425C11.5384 7.99909 9.64221 9.31247 7.05078 9.31247ZM6.98655 2.4084C5.42591 2.4084 4.1607 3.67361 4.1607 5.23425C4.1607 6.79489 5.42591 8.0601 6.98655 8.0601C8.54719 8.0601 9.81241 6.79489 9.81241 5.23425C9.81241 3.67361 8.54719 2.4084 6.98655 2.4084ZM6.98655 7.03252C5.99269 7.03252 5.18828 6.22811 5.18828 5.23425C5.18828 4.24038 5.99269 3.43598 6.98655 3.43598C7.98042 3.43598 8.78482 4.24038 8.78482 5.23425C8.78482 6.22811 7.98042 7.03252 6.98655 7.03252Z" fill="white"/>
</svg>
